# xmcd
#
# Track frame offsets:
#	150
#	17807
#	32480
#	47107
#	62670
#	78140
#	94755
#	110557
#	124865
#	138375
#	156317
#	172670
#	183620
#	202095
#	217137
#	234057
#	252067
#	270495
#	285990
#	300715
#	321047
#
# Disc length: 4462 seconds
#
# Revision: 1
# Processed by: cddbd v1.4PL0 Copyright (c) Steve Scherf et al.
# Submitted via: audiograbber 1.80
#
DISCID=1d116c15
DTITLE=Various Artist - Hott Country 039
DYEAR=1900
DGENRE=
TTITLE0=Shania Twain - Man I Feel Like A Woman
TTITLE1=Confederate Railroad - Cowboy Cailliac
TTITLE2=T. Graham Brown - Happy Ever After
TTITLE3=Bellamy Brothers - Some Broken Hearts
TTITLE4=Jon Randall - Cold Coffee Morning
TTITLE5=Diamond Rio - I Know How The River Feels
TTITLE6=Joe Diffie - A Night To Remember
TTITLE7=Keith Harding - There Goes The Neighborhood
TTITLE8=Toby Keith - If A Man Answers
TTITLE9=Martina McBride - Whatever You Say
TTITLE10=Allison Moorer - Pardon Me
TTITLE11=John Michael Montgomery - Hello L.O.V.E.
TTITLE12=Lorrie Morgan/Sammy Kershaw - I Finally Found Someone
TTITLE13=Mark Nesler - Baby Ain't Rocking Me
TTITLE14=Brad Paisley - Who Needs Pictures
TTITLE15=Michael Peterson - Somethin' 'Bout A Sunday
TTITLE16=South Sixty Five - No Easy Goodbye
TTITLE17=Tim Wilson - First Baptist Bar And Grill
TTITLE18=Randy Travis - Stranger In My Mirror
TTITLE19=Steve Wariner - Two Teardrops
TTITLE20=Wilkinsons - Boy Oh Boy
EXTD=
EXTT0=
EXTT1=
EXTT2=
EXTT3=
EXTT4=
EXTT5=
EXTT6=
EXTT7=
EXTT8=
EXTT9=
EXTT10=
EXTT11=
EXTT12=
EXTT13=
EXTT14=
EXTT15=
EXTT16=
EXTT17=
EXTT18=
EXTT19=
EXTT20=
PLAYORDER=
